<?xml version="1.0" encoding="UTF-8"?>
<!DOCTYPE svg PUBLIC "-//W3C//DTD SVG 1.1//EN" "http://www.w3.org/Graphics/SVG/1.1/DTD/svg11.dtd">
<!-- Creator: CorelDRAW 2017 -->
<svg xmlns="http://www.w3.org/2000/svg" xml:space="preserve" width="127.522mm" height="72.7272mm" version="1.1" style="shape-rendering:geometricPrecision; text-rendering:geometricPrecision; image-rendering:optimizeQuality; fill-rule:evenodd; clip-rule:evenodd"
viewBox="0 0 12752 7273"
 xmlns:xlink="http://www.w3.org/1999/xlink">
 <defs>
  <style type="text/css">
   <![CDATA[
    .fil0 {fill:rgba(94, 94, 94, 0.726)}
   ]]>
  </style>
 </defs>
 <g id="Слой_x0020_1">
  <metadata id="CorelCorpID_0Corel-Layer"/>
  <path class="fil0" d="M0 847c0,508 244,680 616,1052 615,615 4912,4949 5151,5135 245,191 313,238 658,238 405,0 700,-364 953,-616l2379 -2379c224,-224 2612,-2586 2757,-2772 191,-245 238,-313 238,-658 0,-437 -409,-847 -847,-847 -446,0 -627,191 -928,492 -451,451 -4457,4492 -4601,4589 -139,-93 -4141,-4128 -4589,-4577 -314,-314 -485,-504 -940,-504 -437,0 -847,409 -847,847z"/>
 </g>
</svg>
