<?xml version="1.0" encoding="UTF-8"?>
<!DOCTYPE svg PUBLIC "-//W3C//DTD SVG 1.1//EN" "http://www.w3.org/Graphics/SVG/1.1/DTD/svg11.dtd">
<!-- Creator: CorelDRAW 2017 -->
<svg xmlns="http://www.w3.org/2000/svg" xml:space="preserve" width="79.375mm" height="60.8008mm" version="1.1" style="shape-rendering:geometricPrecision; text-rendering:geometricPrecision; image-rendering:optimizeQuality; fill-rule:evenodd; clip-rule:evenodd"
viewBox="0 0 7938 6080"
 xmlns:xlink="http://www.w3.org/1999/xlink">
 <defs>
  <style type="text/css">
   <![CDATA[
    .fil0 {fill:#FEFEFE}
   ]]>
  </style>
 </defs>
 <g id="Слой_x0020_1">
  <metadata id="CorelCorpID_0Corel-Layer"/>
  <path class="fil0" d="M0 2397l0 1276c328,556 456,347 1379,382 226,9 272,130 379,238 161,162 1660,1692 1787,1742 475,186 549,-236 547,-619l0 -4727c1,-386 -29,-771 -490,-673 -334,71 -1854,1971 -2156,2003 -153,16 -432,-1 -599,-1 -602,-1 -599,-16 -847,379zm7938 -348l0 -12c-157,-171 -355,-377 -528,-529l-985 978c-214,-109 -771,-820 -1027,-968 -114,105 -420,364 -525,542 133,84 924,874 983,1002l-982 973 522 522 974 -974c258,101 759,787 1045,982 139,-129 408,-365 502,-524 -71,-152 -360,-395 -483,-519 -121,-121 -415,-378 -492,-519 276,-215 741,-819 996,-954z"/>
 </g>
</svg>
