<?xml version="1.0" encoding="UTF-8"?>
<!DOCTYPE svg PUBLIC "-//W3C//DTD SVG 1.1//EN" "http://www.w3.org/Graphics/SVG/1.1/DTD/svg11.dtd">
<!-- Creator: CorelDRAW 2017 -->
<svg xmlns="http://www.w3.org/2000/svg" xml:space="preserve" width="41.968mm" height="46.5667mm" version="1.1" style="shape-rendering:geometricPrecision; text-rendering:geometricPrecision; image-rendering:optimizeQuality; fill-rule:evenodd; clip-rule:evenodd"
viewBox="0 0 4197 4657"
 xmlns:xlink="http://www.w3.org/1999/xlink">
 <defs>
  <style type="text/css">
   <![CDATA[
    .fil0 {fill:#FEFEFE}
   ]]>
  </style>
 </defs>
 <g id="Слой_x0020_1">
  <metadata id="CorelCorpID_0Corel-Layer"/>
  <path class="fil0" d="M170 0l1451 0c94,0 170,77 170,170l0 4317c0,94 -77,170 -170,170l-1451 0c-94,0 -170,-77 -170,-170l0 -4317c0,-94 77,-170 170,-170zm2406 0l1451 0c94,0 170,77 170,170l0 4317c0,94 -77,170 -170,170l-1451 0c-94,0 -170,-77 -170,-170l0 -4317c0,-94 77,-170 170,-170z"/>
 </g>
</svg>
