<?xml version="1.0" encoding="UTF-8"?>
<!DOCTYPE svg PUBLIC "-//W3C//DTD SVG 1.1//EN" "http://www.w3.org/Graphics/SVG/1.1/DTD/svg11.dtd">
<!-- Creator: CorelDRAW 2017 -->
<svg xmlns="http://www.w3.org/2000/svg" xml:space="preserve" width="36.881mm" height="46.567mm" version="1.1" style="shape-rendering:geometricPrecision; text-rendering:geometricPrecision; image-rendering:optimizeQuality; fill-rule:evenodd; clip-rule:evenodd"
viewBox="0 0 3688 4657"
 xmlns:xlink="http://www.w3.org/1999/xlink">
 <defs>
  <style type="text/css">
   <![CDATA[
    .fil0 {fill:#FEFEFE}
   ]]>
  </style>
 </defs>
 <g id="Слой_x0020_1">
  <metadata id="CorelCorpID_0Corel-Layer"/>
  <path class="fil0" d="M0 333l0 3993c0,188 107,331 267,331 121,0 177,-54 252,-104 74,-50 142,-90 216,-140l1300 -850c143,-95 285,-186 430,-282l753 -494c37,-25 69,-41 110,-68 76,-51 137,-92 214,-142 126,-83 147,-129 147,-272 0,-112 -72,-172 -140,-216l-3014 -1971c-155,-103 -289,-193 -461,-17 -53,54 -73,131 -73,233z"/>
 </g>
</svg>
