<?xml version="1.0" encoding="UTF-8"?>
<!DOCTYPE svg PUBLIC "-//W3C//DTD SVG 1.1//EN" "http://www.w3.org/Graphics/SVG/1.1/DTD/svg11.dtd">
<!-- Creator: CorelDRAW 2017 -->
<svg xmlns="http://www.w3.org/2000/svg" xml:space="preserve" width="69.7972mm" height="60.8008mm" version="1.1" style="shape-rendering:geometricPrecision; text-rendering:geometricPrecision; image-rendering:optimizeQuality; fill-rule:evenodd; clip-rule:evenodd"
viewBox="0 0 6984 6083"
 xmlns:xlink="http://www.w3.org/1999/xlink">
 <defs>
  <style type="text/css">
   <![CDATA[
    .str0 {stroke:#373435;stroke-width:7.62417}
    .fil0 {fill:white}
   ]]>
  </style>
 </defs>
 <g id="Слой_x0020_1">
  <metadata id="CorelCorpID_0Corel-Layer"/>
  <g id="_1977958890064">
   <path class="fil0" d="M0 2398l0 1277c328,556 456,347 1380,382 227,9 272,130 379,238 162,162 1661,1693 1787,1743 476,186 549,-236 548,-619l0 -4730c1,-386 -29,-772 -491,-673 -334,71 -1855,1972 -2157,2004 -153,16 -433,-1 -599,-1 -602,-1 -599,-16 -847,379z"/>
   <g>
    <path class="fil0 str0" d="M5213 1123c-288,-125 -283,-641 244,-493 2035,756 2025,4071 0,4824 -527,148 -532,-368 -244,-493 1593,-781 1593,-3057 0,-3838z"/>
    <path class="fil0 str0" d="M4630 2033c-250,-150 -128,-602 251,-492 1328,384 1327,2619 0,3002 -379,109 -500,-342 -251,-492 902,-467 921,-1541 0,-2017z"/>
   </g>
  </g>
 </g>
</svg>
